<svg xmlns="http://www.w3.org/2000/svg" viewBox="0 0 100 100" fill="currentColor">
  <!-- Ram horns - left -->
  <path d="M50 52
           C50 52 38 52 26 40
           C10 24 6 8 14 2
           C22 -4 34 2 38 14
           C42 26 36 38 36 38
           C36 38 40 28 38 18
           C36 10 30 6 24 10
           C18 14 18 28 30 42
           C38 50 50 52 50 52"
        fill="currentColor"/>
  
  <!-- Ram horns - right -->
  <path d="M50 52
           C50 52 62 52 74 40
           C90 24 94 8 86 2
           C78 -4 66 2 62 14
           C58 26 64 38 64 38
           C64 38 60 28 62 18
           C64 10 70 6 76 10
           C82 14 82 28 70 42
           C62 50 50 52 50 52"
        fill="currentColor"/>
  
  <!-- Rose diamond outline -->
  <path d="M50 5
           L62 22
           L50 42
           L38 22
           Z"
        fill="none"
        stroke="currentColor"
        stroke-width="2.5"/>
  
  <!-- Inner petal/figure -->
  <path d="M50 12
           L56 22
           L50 34
           L44 22
           Z"
        fill="currentColor"/>
  
  <!-- Center dot -->
  <circle cx="50" cy="22" r="2.5" fill="none" stroke="currentColor" stroke-width="1.5"/>
</svg>
